<mxfile host="app.diagrams.net" modified="2022-05-10T23:12:47.707Z" agent="5.0 (X11)" etag="32n25IqQFhFnGHGudVUa" version="18.0.2" type="github">
  <diagram id="C5RBs43oDa-KdzZeNtuy" name="Page-1">
    <mxGraphModel dx="868" dy="1645" grid="1" gridSize="10" guides="1" tooltips="1" connect="1" arrows="1" fold="1" page="1" pageScale="1" pageWidth="827" pageHeight="1169" math="0" shadow="0">
      <root>
        <mxCell id="WIyWlLk6GJQsqaUBKTNV-0" />
        <mxCell id="WIyWlLk6GJQsqaUBKTNV-1" parent="WIyWlLk6GJQsqaUBKTNV-0" />
        <mxCell id="gTUWzl0cyye1RNJ3JdWd-1" value="" style="rounded=0;whiteSpace=wrap;html=1;fontFamily=Helvetica;fontSize=12;strokeColor=#b85450;fillColor=#f8cecc;fontStyle=0;shadow=1;sketch=0;glass=0;" vertex="1" parent="WIyWlLk6GJQsqaUBKTNV-1">
          <mxGeometry x="207" y="-160" width="433" height="1250" as="geometry" />
        </mxCell>
        <mxCell id="gTUWzl0cyye1RNJ3JdWd-2" value="&lt;h2&gt;&lt;font color=&quot;#FF0000&quot;&gt;main.cpp&lt;/font&gt;&lt;br&gt;&lt;/h2&gt;" style="text;html=1;strokeColor=none;fillColor=none;align=center;verticalAlign=middle;whiteSpace=wrap;rounded=0;fontFamily=Helvetica;fontSize=12;fontColor=default;" vertex="1" parent="WIyWlLk6GJQsqaUBKTNV-1">
          <mxGeometry x="230" y="-45" width="60" height="30" as="geometry" />
        </mxCell>
        <mxCell id="gTUWzl0cyye1RNJ3JdWd-4" value="" style="rounded=1;whiteSpace=wrap;html=1;shadow=1;glass=0;sketch=0;fontFamily=Courier New;fontSize=13;fontColor=#FF0000;strokeColor=default;fillColor=default;" vertex="1" parent="WIyWlLk6GJQsqaUBKTNV-1">
          <mxGeometry x="245" y="95" width="260" height="70" as="geometry" />
        </mxCell>
        <mxCell id="gTUWzl0cyye1RNJ3JdWd-5" value="pinMode(RFID_PIN, OUTPUT);&amp;nbsp;&amp;nbsp; digitalWrite(RFID_PIN, HIGH);&amp;nbsp;&amp;nbsp; pinMode(RFID_RST_PIN, OUTPUT); " style="text;html=1;strokeColor=none;fillColor=none;align=center;verticalAlign=middle;whiteSpace=wrap;rounded=0;shadow=1;glass=0;sketch=0;fontFamily=Courier New;fontSize=13;fontColor=#000000;fontStyle=1" vertex="1" parent="WIyWlLk6GJQsqaUBKTNV-1">
          <mxGeometry x="255" y="100" width="250" height="60" as="geometry" />
        </mxCell>
        <mxCell id="gTUWzl0cyye1RNJ3JdWd-6" value="" style="endArrow=classic;html=1;rounded=0;fontFamily=Courier New;fontSize=13;fontColor=#000000;exitX=0.5;exitY=1;exitDx=0;exitDy=0;" edge="1" parent="WIyWlLk6GJQsqaUBKTNV-1" source="gTUWzl0cyye1RNJ3JdWd-4">
          <mxGeometry width="50" height="50" relative="1" as="geometry">
            <mxPoint x="410" y="300" as="sourcePoint" />
            <mxPoint x="380" y="210" as="targetPoint" />
            <Array as="points" />
          </mxGeometry>
        </mxCell>
        <mxCell id="gTUWzl0cyye1RNJ3JdWd-7" value="" style="rounded=1;whiteSpace=wrap;html=1;shadow=1;glass=0;sketch=0;fontFamily=Courier New;fontSize=13;fontColor=#000000;strokeColor=default;fillColor=default;" vertex="1" parent="WIyWlLk6GJQsqaUBKTNV-1">
          <mxGeometry x="310" y="210" width="120" height="30" as="geometry" />
        </mxCell>
        <mxCell id="gTUWzl0cyye1RNJ3JdWd-8" value="&lt;b&gt;SPI.begin();&lt;/b&gt;" style="text;html=1;strokeColor=none;fillColor=none;align=center;verticalAlign=middle;whiteSpace=wrap;rounded=0;shadow=1;glass=0;sketch=0;fontFamily=Courier New;fontSize=13;fontColor=#000000;" vertex="1" parent="WIyWlLk6GJQsqaUBKTNV-1">
          <mxGeometry x="345" y="210" width="60" height="30" as="geometry" />
        </mxCell>
        <mxCell id="gTUWzl0cyye1RNJ3JdWd-14" value="" style="rounded=1;whiteSpace=wrap;html=1;shadow=1;glass=0;sketch=0;fontFamily=Courier New;fontSize=13;fontColor=#000000;strokeColor=default;fillColor=default;" vertex="1" parent="WIyWlLk6GJQsqaUBKTNV-1">
          <mxGeometry x="320" y="275" width="120" height="20" as="geometry" />
        </mxCell>
        <mxCell id="gTUWzl0cyye1RNJ3JdWd-20" style="edgeStyle=orthogonalEdgeStyle;rounded=0;orthogonalLoop=1;jettySize=auto;html=1;exitX=0.5;exitY=1;exitDx=0;exitDy=0;fontFamily=Courier New;fontSize=13;fontColor=#000000;" edge="1" parent="WIyWlLk6GJQsqaUBKTNV-1" source="gTUWzl0cyye1RNJ3JdWd-12" target="gTUWzl0cyye1RNJ3JdWd-18">
          <mxGeometry relative="1" as="geometry" />
        </mxCell>
        <mxCell id="gTUWzl0cyye1RNJ3JdWd-12" value="&lt;b&gt;alert.init();&lt;/b&gt;" style="text;html=1;strokeColor=none;fillColor=none;align=center;verticalAlign=middle;whiteSpace=wrap;rounded=0;shadow=1;glass=0;sketch=0;fontFamily=Courier New;fontSize=13;fontColor=#000000;" vertex="1" parent="WIyWlLk6GJQsqaUBKTNV-1">
          <mxGeometry x="350" y="270" width="60" height="30" as="geometry" />
        </mxCell>
        <mxCell id="gTUWzl0cyye1RNJ3JdWd-16" value="" style="endArrow=classic;html=1;rounded=0;fontFamily=Courier New;fontSize=13;fontColor=#000000;exitX=0.5;exitY=1;exitDx=0;exitDy=0;" edge="1" parent="WIyWlLk6GJQsqaUBKTNV-1" source="gTUWzl0cyye1RNJ3JdWd-8" target="gTUWzl0cyye1RNJ3JdWd-12">
          <mxGeometry width="50" height="50" relative="1" as="geometry">
            <mxPoint x="410" y="300" as="sourcePoint" />
            <mxPoint x="460" y="250" as="targetPoint" />
          </mxGeometry>
        </mxCell>
        <mxCell id="gTUWzl0cyye1RNJ3JdWd-24" style="edgeStyle=orthogonalEdgeStyle;rounded=0;orthogonalLoop=1;jettySize=auto;html=1;exitX=0.5;exitY=1;exitDx=0;exitDy=0;entryX=0.5;entryY=0;entryDx=0;entryDy=0;fontFamily=Courier New;fontSize=13;fontColor=#000000;" edge="1" parent="WIyWlLk6GJQsqaUBKTNV-1" source="gTUWzl0cyye1RNJ3JdWd-18" target="gTUWzl0cyye1RNJ3JdWd-21">
          <mxGeometry relative="1" as="geometry" />
        </mxCell>
        <mxCell id="gTUWzl0cyye1RNJ3JdWd-18" value="&lt;b&gt;file.init();&lt;/b&gt;" style="rounded=1;whiteSpace=wrap;html=1;shadow=1;glass=0;sketch=0;fontFamily=Courier New;fontSize=13;fontColor=#000000;strokeColor=default;fillColor=default;" vertex="1" parent="WIyWlLk6GJQsqaUBKTNV-1">
          <mxGeometry x="320" y="330" width="105" height="30" as="geometry" />
        </mxCell>
        <mxCell id="gTUWzl0cyye1RNJ3JdWd-34" style="edgeStyle=orthogonalEdgeStyle;rounded=0;orthogonalLoop=1;jettySize=auto;html=1;exitX=0.5;exitY=1;exitDx=0;exitDy=0;entryX=0.5;entryY=0;entryDx=0;entryDy=0;fontFamily=Courier New;fontSize=13;fontColor=#000000;" edge="1" parent="WIyWlLk6GJQsqaUBKTNV-1" source="gTUWzl0cyye1RNJ3JdWd-21" target="gTUWzl0cyye1RNJ3JdWd-30">
          <mxGeometry relative="1" as="geometry" />
        </mxCell>
        <mxCell id="gTUWzl0cyye1RNJ3JdWd-21" value="" style="rounded=1;whiteSpace=wrap;html=1;shadow=1;glass=0;sketch=0;fontFamily=Courier New;fontSize=13;fontColor=#000000;strokeColor=default;fillColor=default;" vertex="1" parent="WIyWlLk6GJQsqaUBKTNV-1">
          <mxGeometry x="250" y="380" width="310" height="50" as="geometry" />
        </mxCell>
        <mxCell id="gTUWzl0cyye1RNJ3JdWd-23" value="wifiServerManager.init(&amp;amp;alert, &amp;amp;ntp);&amp;nbsp; wifiServerManager.disconnectStation();" style="text;html=1;strokeColor=none;fillColor=none;align=center;verticalAlign=middle;whiteSpace=wrap;rounded=0;shadow=1;glass=0;sketch=0;fontFamily=Courier New;fontSize=13;fontColor=#000000;fontStyle=1" vertex="1" parent="WIyWlLk6GJQsqaUBKTNV-1">
          <mxGeometry x="375" y="390" width="60" height="30" as="geometry" />
        </mxCell>
        <mxCell id="gTUWzl0cyye1RNJ3JdWd-27" value="" style="shape=curlyBracket;whiteSpace=wrap;html=1;rounded=1;shadow=1;glass=0;sketch=0;fontFamily=Courier New;fontSize=13;fontColor=#FF8000;strokeColor=default;fillColor=default;size=0.5;" vertex="1" parent="WIyWlLk6GJQsqaUBKTNV-1">
          <mxGeometry x="300" y="-120" width="20" height="180" as="geometry" />
        </mxCell>
        <mxCell id="gTUWzl0cyye1RNJ3JdWd-28" value="&lt;div style=&quot;color: rgb(253, 255, 241); background-color: rgb(39, 40, 34); font-family: &amp;quot;Droid Sans Mono&amp;quot;, &amp;quot;monospace&amp;quot;, monospace; font-weight: normal; font-size: 14px; line-height: 19px;&quot;&gt;&lt;div&gt;&lt;span style=&quot;color: #66d9ef;&quot;&gt;Alert&lt;/span&gt;&lt;span style=&quot;color: #fdfff1;&quot;&gt; &lt;/span&gt;&lt;span style=&quot;color: #fdfff1;&quot;&gt;alert&lt;/span&gt;&lt;span style=&quot;color: #919288;&quot;&gt;;&lt;/span&gt;&lt;span style=&quot;color: #6e7066;font-style: italic;&quot;&gt;&lt;br&gt;&lt;/span&gt;&lt;/div&gt;&lt;div&gt;&lt;span style=&quot;color: #66d9ef;&quot;&gt;WifiServerManager&lt;/span&gt;&lt;span style=&quot;color: #fdfff1;&quot;&gt; &lt;/span&gt;&lt;span style=&quot;color: #fdfff1;&quot;&gt;wifiServerManager&lt;/span&gt;&lt;span style=&quot;color: #919288;&quot;&gt;;&lt;/span&gt;&lt;span style=&quot;color: #6e7066;font-style: italic;&quot;&gt;&lt;/span&gt;&lt;/div&gt;&lt;div&gt;&lt;span style=&quot;color: #66d9ef;&quot;&gt;RFIDManager&lt;/span&gt;&lt;span style=&quot;color: #fdfff1;&quot;&gt; &lt;/span&gt;&lt;span style=&quot;color: #fdfff1;&quot;&gt;rfid&lt;/span&gt;&lt;span style=&quot;color: #919288;&quot;&gt;;&lt;/span&gt;&lt;/div&gt;&lt;div&gt;&lt;span style=&quot;color: #66d9ef;&quot;&gt;NTPManager&lt;/span&gt;&lt;span style=&quot;color: #fdfff1;&quot;&gt; &lt;/span&gt;&lt;span style=&quot;color: #fdfff1;&quot;&gt;ntp&lt;/span&gt;&lt;span style=&quot;color: #919288;&quot;&gt;;&lt;/span&gt;&lt;/div&gt;&lt;div&gt;&lt;span style=&quot;color: #66d9ef;&quot;&gt;SPIFFSManager&lt;/span&gt;&lt;span style=&quot;color: #fdfff1;&quot;&gt; &lt;/span&gt;&lt;span style=&quot;color: #fdfff1;&quot;&gt;file&lt;/span&gt;&lt;span style=&quot;color: #919288;&quot;&gt;;&lt;/span&gt;&lt;/div&gt;&lt;div&gt;&lt;span style=&quot;color: #66d9ef;&quot;&gt;UserList&lt;/span&gt;&lt;span style=&quot;color: #fdfff1;&quot;&gt; &lt;/span&gt;&lt;span style=&quot;color: #fdfff1;&quot;&gt;userList&lt;/span&gt;&lt;span style=&quot;color: #919288;&quot;&gt;;&lt;/span&gt;&lt;/div&gt;&lt;br&gt;&lt;div&gt;&lt;span style=&quot;color: #66d9ef;font-style: italic;&quot;&gt;int&lt;/span&gt;&lt;span style=&quot;color: #fdfff1;&quot;&gt; &lt;/span&gt;&lt;span style=&quot;color: #fdfff1;&quot;&gt;countTime&lt;/span&gt;&lt;span style=&quot;color: #fdfff1;&quot;&gt; &lt;/span&gt;&lt;span style=&quot;color: #f92672;&quot;&gt;=&lt;/span&gt;&lt;span style=&quot;color: #fdfff1;&quot;&gt; &lt;/span&gt;&lt;span style=&quot;color: #ae81ff;&quot;&gt;0&lt;/span&gt;&lt;span style=&quot;color: #919288;&quot;&gt;;&lt;/span&gt;&lt;/div&gt;&lt;/div&gt;" style="text;whiteSpace=wrap;html=1;fontSize=13;fontFamily=Courier New;fontColor=#FF8000;" vertex="1" parent="WIyWlLk6GJQsqaUBKTNV-1">
          <mxGeometry x="330" y="-120" width="260" height="215" as="geometry" />
        </mxCell>
        <mxCell id="gTUWzl0cyye1RNJ3JdWd-29" value="" style="rounded=1;whiteSpace=wrap;html=1;shadow=1;glass=0;sketch=0;fontFamily=Courier New;fontSize=13;fontColor=#FF8000;strokeColor=default;fillColor=default;" vertex="1" parent="WIyWlLk6GJQsqaUBKTNV-1">
          <mxGeometry x="320" y="460" width="150" height="20" as="geometry" />
        </mxCell>
        <mxCell id="gTUWzl0cyye1RNJ3JdWd-37" style="edgeStyle=orthogonalEdgeStyle;rounded=0;orthogonalLoop=1;jettySize=auto;html=1;exitX=0.5;exitY=1;exitDx=0;exitDy=0;entryX=0.25;entryY=0;entryDx=0;entryDy=0;fontFamily=Courier New;fontSize=13;fontColor=#000000;" edge="1" parent="WIyWlLk6GJQsqaUBKTNV-1" source="gTUWzl0cyye1RNJ3JdWd-30" target="gTUWzl0cyye1RNJ3JdWd-36">
          <mxGeometry relative="1" as="geometry" />
        </mxCell>
        <mxCell id="gTUWzl0cyye1RNJ3JdWd-30" value="&lt;font color=&quot;#000000&quot;&gt;&lt;b&gt;rfid.init(&amp;amp;file);&lt;/b&gt;&lt;/font&gt;" style="text;html=1;strokeColor=none;fillColor=none;align=center;verticalAlign=middle;whiteSpace=wrap;rounded=0;shadow=1;glass=0;sketch=0;fontFamily=Courier New;fontSize=13;fontColor=#FF8000;" vertex="1" parent="WIyWlLk6GJQsqaUBKTNV-1">
          <mxGeometry x="365" y="455" width="60" height="30" as="geometry" />
        </mxCell>
        <mxCell id="gTUWzl0cyye1RNJ3JdWd-35" value="" style="rounded=1;whiteSpace=wrap;html=1;shadow=1;glass=0;sketch=0;fontFamily=Courier New;fontSize=13;fontColor=#000000;strokeColor=default;fillColor=default;" vertex="1" parent="WIyWlLk6GJQsqaUBKTNV-1">
          <mxGeometry x="280" y="520" width="250" height="30" as="geometry" />
        </mxCell>
        <mxCell id="gTUWzl0cyye1RNJ3JdWd-46" style="edgeStyle=orthogonalEdgeStyle;rounded=0;orthogonalLoop=1;jettySize=auto;html=1;exitX=0.5;exitY=1;exitDx=0;exitDy=0;entryX=0.5;entryY=0;entryDx=0;entryDy=0;fontFamily=Courier New;fontSize=13;fontColor=#000000;" edge="1" parent="WIyWlLk6GJQsqaUBKTNV-1" source="gTUWzl0cyye1RNJ3JdWd-36" target="gTUWzl0cyye1RNJ3JdWd-39">
          <mxGeometry relative="1" as="geometry" />
        </mxCell>
        <mxCell id="gTUWzl0cyye1RNJ3JdWd-36" value="&lt;b&gt;userList.setFileManager(&amp;amp;file);&lt;/b&gt;" style="text;html=1;strokeColor=none;fillColor=none;align=center;verticalAlign=middle;whiteSpace=wrap;rounded=0;shadow=1;glass=0;sketch=0;fontFamily=Courier New;fontSize=13;fontColor=#000000;" vertex="1" parent="WIyWlLk6GJQsqaUBKTNV-1">
          <mxGeometry x="375" y="520" width="60" height="30" as="geometry" />
        </mxCell>
        <mxCell id="gTUWzl0cyye1RNJ3JdWd-38" value="" style="rounded=1;whiteSpace=wrap;html=1;shadow=1;glass=0;sketch=0;fontFamily=Courier New;fontSize=13;fontColor=#000000;strokeColor=default;fillColor=default;" vertex="1" parent="WIyWlLk6GJQsqaUBKTNV-1">
          <mxGeometry x="210" y="590" width="420" height="80" as="geometry" />
        </mxCell>
        <mxCell id="gTUWzl0cyye1RNJ3JdWd-48" value="" style="edgeStyle=orthogonalEdgeStyle;rounded=0;orthogonalLoop=1;jettySize=auto;html=1;fontFamily=Courier New;fontSize=13;fontColor=#000000;" edge="1" parent="WIyWlLk6GJQsqaUBKTNV-1" source="gTUWzl0cyye1RNJ3JdWd-39" target="gTUWzl0cyye1RNJ3JdWd-47">
          <mxGeometry relative="1" as="geometry" />
        </mxCell>
        <mxCell id="gTUWzl0cyye1RNJ3JdWd-39" value="&lt;div&gt;file.readSPIFFS(WIFI_FILE);&lt;/div&gt;&lt;div&gt;userList.readUsersFromFile(USER_FILE); &lt;br&gt;&lt;/div&gt;&lt;div&gt;&amp;nbsp;&amp;nbsp;&amp;nbsp;&amp;nbsp; int registersCount = file.readSPIFFS(REGISTER_FILE); &lt;br&gt;&lt;/div&gt;&lt;div&gt;&amp;nbsp; int usersCount = file.readSPIFFS(USER_FILE);&lt;br&gt;&lt;/div&gt;" style="text;html=1;strokeColor=none;fillColor=none;align=center;verticalAlign=middle;whiteSpace=wrap;rounded=0;shadow=1;glass=0;sketch=0;fontFamily=Courier New;fontSize=13;fontColor=#000000;fontStyle=1" vertex="1" parent="WIyWlLk6GJQsqaUBKTNV-1">
          <mxGeometry x="180" y="590" width="450" height="80" as="geometry" />
        </mxCell>
        <mxCell id="gTUWzl0cyye1RNJ3JdWd-47" value="" style="shape=hexagon;perimeter=hexagonPerimeter2;whiteSpace=wrap;html=1;fixedSize=1;rounded=1;shadow=1;glass=0;sketch=0;fontFamily=Courier New;fontSize=13;strokeColor=#36393d;fillColor=#cdeb8b;" vertex="1" parent="WIyWlLk6GJQsqaUBKTNV-1">
          <mxGeometry x="235" y="750" width="375" height="260" as="geometry" />
        </mxCell>
        <mxCell id="gTUWzl0cyye1RNJ3JdWd-49" value="&lt;font style=&quot;font-size: 17px;&quot; color=&quot;#33FF33&quot;&gt;&lt;b style=&quot;font-size: 17px;&quot;&gt;loop()&lt;/b&gt;&lt;/font&gt;" style="text;html=1;strokeColor=none;fillColor=none;align=center;verticalAlign=middle;whiteSpace=wrap;rounded=0;shadow=1;glass=0;sketch=0;fontFamily=Courier New;fontSize=17;fontColor=#000000;" vertex="1" parent="WIyWlLk6GJQsqaUBKTNV-1">
          <mxGeometry x="280" y="760" width="60" height="30" as="geometry" />
        </mxCell>
        <mxCell id="gTUWzl0cyye1RNJ3JdWd-50" style="edgeStyle=orthogonalEdgeStyle;rounded=0;orthogonalLoop=1;jettySize=auto;html=1;exitX=0.5;exitY=1;exitDx=0;exitDy=0;fontFamily=Courier New;fontSize=17;fontColor=#33FF33;" edge="1" parent="WIyWlLk6GJQsqaUBKTNV-1" source="gTUWzl0cyye1RNJ3JdWd-47">
          <mxGeometry relative="1" as="geometry">
            <mxPoint x="430" y="740" as="targetPoint" />
            <Array as="points">
              <mxPoint x="423" y="1030" />
              <mxPoint x="630" y="1030" />
              <mxPoint x="630" y="730" />
              <mxPoint x="430" y="730" />
            </Array>
          </mxGeometry>
        </mxCell>
      </root>
    </mxGraphModel>
  </diagram>
</mxfile>
